<svg width="48" height="48" viewBox="0 0 48 48" fill="none" xmlns="http://www.w3.org/2000/svg">
<path d="M24 48C37.2548 48 48 37.2548 48 24C48 10.7452 37.2548 0 24 0C10.7452 0 0 10.7452 0 24C0 37.2548 10.7452 48 24 48Z" fill="url(#paint0_linear_482_35603)"/>
<path d="M34.6672 15.9998C33.96 15.9998 33.2817 15.7189 32.7816 15.2188C32.2815 14.7187 32.0006 14.0404 32.0006 13.3332C32.0006 12.6259 31.7196 11.9476 31.2195 11.4476C30.7194 10.9475 30.0411 10.6665 29.3339 10.6665H13.3339C12.6267 10.6665 11.9484 10.9475 11.4483 11.4476C10.9482 11.9476 10.6672 12.6259 10.6672 13.3332V23.9998C10.6672 24.7071 10.9482 25.3854 11.4483 25.8855C11.9484 26.3856 12.6267 26.6665 13.3339 26.6665C14.0411 26.6665 14.7194 26.9475 15.2195 27.4476C15.7196 27.9476 16.0006 28.6259 16.0006 29.3332V34.6665C16.0006 35.3738 16.2815 36.052 16.7816 36.5521C17.2817 37.0522 17.96 37.3332 18.6672 37.3332H29.3339C30.0411 37.3332 30.7194 37.0522 31.2195 36.5521C31.7196 36.052 32.0006 35.3738 32.0006 34.6665C32.0006 33.9593 32.2815 33.281 32.7816 32.7809C33.2817 32.2808 33.96 31.9998 34.6672 31.9998C35.3745 31.9998 36.0528 31.7189 36.5529 31.2188C37.053 30.7187 37.3339 30.0404 37.3339 29.3332V18.6665C37.3339 17.9593 37.053 17.281 36.5529 16.7809C36.0528 16.2808 35.3745 15.9998 34.6672 15.9998Z" fill="url(#paint1_linear_482_35603)"/>
<path d="M27.02 26.2166C27.6653 26.2166 28.0962 26.7403 27.98 27.3899L27.2888 31.2832C27.2246 31.6054 27.0537 31.8964 26.8036 32.1094C26.5535 32.3223 26.2389 32.4446 25.9106 32.4566C25.2642 32.4566 24.8344 31.9328 24.9506 31.2832L25.6418 27.3899C25.706 27.0677 25.8769 26.7767 26.127 26.5637C26.3771 26.3508 26.6917 26.2285 27.02 26.2166Z" fill="black"/>
<path d="M22.088 26.2166C22.7344 26.2166 23.1643 26.7403 23.048 27.3899L22.3568 31.2832C22.2927 31.6054 22.1218 31.8964 21.8717 32.1094C21.6216 32.3223 21.3069 32.4446 20.9787 32.4566C20.3334 32.4566 19.9024 31.9328 20.0187 31.2832L20.7099 27.3899C20.774 27.0677 20.945 26.7767 21.1951 26.5637C21.4452 26.3508 21.7598 26.2285 22.088 26.2166Z" fill="black"/>
<defs>
<linearGradient id="paint0_linear_482_35603" x1="24" y1="48" x2="24" y2="0" gradientUnits="userSpaceOnUse">
<stop stop-color="#FF8500"/>
<stop offset="1" stop-color="#FF00FF"/>
</linearGradient>
<linearGradient id="paint1_linear_482_35603" x1="24.0006" y1="37.3332" x2="24.0006" y2="10.6665" gradientUnits="userSpaceOnUse">
<stop offset="0.01" stop-color="#6400BC"/>
<stop offset="1" stop-color="#00FFFF"/>
</linearGradient>
</defs>
</svg>
